<svg xmlns="http://www.w3.org/2000/svg" viewBox="0 0 600 800" role="img" aria-label="Sites illustration">
  <rect width="600" height="800" fill="#0a0a0b"/>
  <g transform="translate(70 210) rotate(-8)">
    <rect width="300" height="210" rx="24" fill="#1b1b20"/>
    <rect width="300" height="40" rx="24" fill="#26262c"/>
    <rect y="20" width="300" height="20" fill="#26262c"/>
    <circle cx="24" cy="20" r="6" fill="#dafd55"/>
    <circle cx="44" cy="20" r="6" fill="#f2f0eb" opacity="0.35"/>
    <rect x="28" y="72" width="150" height="18" rx="9" fill="#f2f0eb"/>
    <rect x="28" y="106" width="110" height="12" rx="6" fill="#f2f0eb" opacity="0.3"/>
  </g>
  <g transform="translate(210 250) rotate(6)">
    <rect width="280" height="200" rx="24" fill="#f4f1ea"/>
    <rect width="280" height="36" rx="24" fill="#e7e2d8"/>
    <rect y="18" width="280" height="18" fill="#e7e2d8"/>
    <circle cx="22" cy="18" r="6" fill="#0a0a0b"/>
    <rect x="24" y="64" width="160" height="16" rx="8" fill="#0a0a0b"/>
    <rect x="24" y="96" width="100" height="12" rx="6" fill="#0a0a0b" opacity="0.35"/>
    <rect x="24" y="124" width="70" height="28" rx="14" fill="#dafd55"/>
  </g>
  <g transform="translate(150 390)">
    <rect width="250" height="120" rx="22" fill="#243044"/>
    <rect x="22" y="28" width="120" height="14" rx="7" fill="#8ec5ff"/>
    <rect x="22" y="56" width="90" height="10" rx="5" fill="#f2f0eb" opacity="0.45"/>
  </g>
  <rect y="560" width="600" height="240" fill="url(#fade)"/>
  <defs>
    <linearGradient id="fade" x1="0" y1="0" x2="0" y2="1">
      <stop offset="0%" stop-color="#0a0a0b" stop-opacity="0"/>
      <stop offset="70%" stop-color="#0a0a0b"/>
    </linearGradient>
  </defs>
</svg>
